<?xml version="1.0" encoding="utf-8"?>
<!DOCTYPE svg PUBLIC "-//W3C//DTD SVG 1.1//EN" "http://www.w3.org/Graphics/SVG/1.1/DTD/svg11.dtd">
<svg version="1.1" xmlns="http://www.w3.org/2000/svg" xmlns:xlink="http://www.w3.org/1999/xlink" x="0px" y="0px" width="1024px" height="1024px" viewBox="0 0 1024 1024" enable-background="new 0 0 1024 1024" xml:space="preserve">
<metadata> Free Icon Download -- www.onlinewebfonts.com </metadata>

  <path d="M512 814.528c-201.664 0-365.12-56.192-365.12-125.44L146.56 689.088l0 196.672 0.256 0c4.928 67.84 166.336 122.304 364.864 122.304 198.592 0 359.936-54.464 364.864-122.304l0.832 0 0-196.672-0.32 0C877.12 758.336 713.664 814.528 512 814.528z" />
<path d="M512 544.192c-201.664 0-365.12-56.192-365.12-125.44L146.56 418.752l0 196.672 0.256 0c4.928 67.84 166.336 122.304 364.864 122.304 198.592 0 359.936-54.464 364.864-122.304l0.832 0L877.376 418.752l-0.32 0C877.12 488 713.664 544.192 512 544.192z" />
<path d="M877.12 140.928c0 0.128-0.064 0.192-0.064 0.32C876.544 72.064 713.344 16.128 512 16.128S147.392 72.064 146.944 141.248c0-0.128-0.064-0.192-0.064-0.32L146.56 140.928l0 196.672 0.256 0c4.928 67.84 166.336 122.304 364.864 122.304 198.592 0 359.936-54.464 364.864-122.304l0.832 0L877.376 140.928 877.12 140.928zM512 41.6c150.336 0 272.256 41.92 272.256 93.568 0 51.648-121.92 93.568-272.256 93.568-150.4 0-272.32-41.92-272.32-93.568C239.68 83.52 361.6 41.6 512 41.6z" />
<path d="M400.576 130.304A1.741 0.598 0 1 1 400.576 194.304Z" />


</svg>