<?xml version="1.0" encoding="UTF-8"?>
<svg version="1.1" viewBox="0 0 320 240" preserveAspectRatio="xMidYMid meet" xmlns="http://www.w3.org/2000/svg" xmlns:xlink="http://www.w3.org/1999/xlink" onload="initialize(evt)"><!--SVG SMIL Animation Export (c) 2015 Animatron LLC--><!--Version 1.0 by squared9--><defs><mask id="canvasMask"><rect x="0" y="0" width="320px" height="240px" fill="#FFFFFF" stroke="none"/></mask></defs><rect fill="#ffffff" stroke="none" x="0" y="0" width="320px" height="240px"/><g id="id46bbe227e1e05f6f92427d02" mask="url(#canvasMask)"><image id="id69b0d2262abb1ce597c5b559" xlink:href="https://assets.animatron.io/cf4f8e564be4bed4fd0ba170.jpg" width="640px" height="480px" visibility="hidden"><set attributeName="visibility" attributeType="CSS" to="visible" begin="0s" fill="none"/><set attributeName="visibility" attributeType="CSS" to="hidden" begin="5s" dur="1000000000000s" fill="freeze"/><animateTransform attributeName="transform" type="translate" additive="replace" begin="0s" dur="4s" repeatCount="1" fill="none" from="160.0 120.0" to="160.0 120.0" calcMode="discrete"/><animateTransform attributeName="transform" type="translate" additive="replace" begin="4s" dur="1s" repeatCount="1" fill="none" from="160.0 120.0" to="160.0 120.0" calcMode="discrete"/><animateTransform attributeName="transform" type="rotate" additive="sum" begin="0s" dur="4s" repeatCount="1" fill="none" from="0.0 0.0 0.0" to="0.0 0.0 0.0" calcMode="discrete"/><animateTransform attributeName="transform" type="rotate" additive="sum" begin="4s" dur="1s" repeatCount="1" fill="none" from="0.0 0.0 0.0" to="0.0 0.0 0.0" calcMode="discrete"/><animateTransform attributeName="transform" type="scale" additive="sum" begin="0s" dur="4s" repeatCount="1" fill="none" from="0.5 0.5" to="0.625 0.625"/><animateTransform attributeName="transform" type="scale" additive="sum" begin="4s" dur="1s" repeatCount="1" fill="none" from="0.625 0.625" to="0.625 0.625" calcMode="discrete"/><animateTransform attributeName="transform" type="translate" additive="sum" begin="0s" dur="4s" repeatCount="1" fill="none" from="-320.0 -240.0" to="-320.0 -240.0" calcMode="discrete"/><animateTransform attributeName="transform" type="translate" additive="sum" begin="4s" dur="1s" repeatCount="1" fill="none" from="-320.0 -240.0" to="-320.0 -240.0" calcMode="discrete"/></image><text id="idfa5d9909c07126d3f5587245" dy="28" style="alignment-baseline: top; font-family: Verdana; font-size: 30.0PX; fill: #faf5e1; stroke: #000000; stroke-width: 0.2" visibility="hidden">I<set attributeName="visibility" attributeType="CSS" to="visible" begin="0.5s" fill="none"/><set attributeName="visibility" attributeType="CSS" to="hidden" begin="0.8s" dur="1000000000000s" fill="freeze"/><animateTransform attributeName="transform" type="translate" additive="replace" begin="0.5s" dur="0.30000000000000004s" repeatCount="1" fill="none" from="120.0 25.0" to="120.0 25.0" calcMode="discrete"/><animateTransform attributeName="transform" type="skewY" additive="sum" begin="0.5s" dur="0.30000000000000004s" repeatCount="1" fill="none" from="0" to="0" calcMode="discrete"/><animateTransform attributeName="transform" type="scale" additive="sum" begin="0.5s" dur="0.30000000000000004s" repeatCount="1" fill="none" from="1 1.0" to="1 1.0" calcMode="discrete"/><animateTransform attributeName="transform" type="skewX" additive="sum" begin="0.5s" dur="0.30000000000000004s" repeatCount="1" fill="none" from="0" to="0" calcMode="discrete"/><animateTransform attributeName="transform" type="translate" additive="sum" begin="0.5s" dur="0.30000000000000004s" repeatCount="1" fill="none" from="-6.5 -18.0" to="-6.5 -18.0" calcMode="discrete"/></text><text id="idc134957659be90b5d72b632a" dy="28" style="alignment-baseline: top; font-family: Verdana; font-size: 30.0PX; fill: #faf5e1; stroke: #000000; stroke-width: 0.2" visibility="hidden">In<set attributeName="visibility" attributeType="CSS" to="visible" begin="0.8s" fill="none"/><set attributeName="visibility" attributeType="CSS" to="hidden" begin="1.1s" dur="1000000000000s" fill="freeze"/><animateTransform attributeName="transform" type="translate" additive="replace" begin="0.8s" dur="0.30000000000000004s" repeatCount="1" fill="none" from="120.0 25.0" to="120.0 25.0" calcMode="discrete"/><animateTransform attributeName="transform" type="skewY" additive="sum" begin="0.8s" dur="0.30000000000000004s" repeatCount="1" fill="none" from="0" to="0" calcMode="discrete"/><animateTransform attributeName="transform" type="scale" additive="sum" begin="0.8s" dur="0.30000000000000004s" repeatCount="1" fill="none" from="1 1.0" to="1 1.0" calcMode="discrete"/><animateTransform attributeName="transform" type="skewX" additive="sum" begin="0.8s" dur="0.30000000000000004s" repeatCount="1" fill="none" from="0" to="0" calcMode="discrete"/><animateTransform attributeName="transform" type="translate" additive="sum" begin="0.8s" dur="0.30000000000000004s" repeatCount="1" fill="none" from="-6.5 -18.0" to="-6.5 -18.0" calcMode="discrete"/></text><text id="id3e0977ae9184bed9c62b22a5" dy="28" style="alignment-baseline: top; font-family: Verdana; font-size: 30.0PX; fill: #faf5e1; stroke: #000000; stroke-width: 0.2" visibility="hidden">Int<set attributeName="visibility" attributeType="CSS" to="visible" begin="1.1s" fill="none"/><set attributeName="visibility" attributeType="CSS" to="hidden" begin="1.4s" dur="1000000000000s" fill="freeze"/><animateTransform attributeName="transform" type="translate" additive="replace" begin="1.1s" dur="0.30000000000000004s" repeatCount="1" fill="none" from="120.0 25.0" to="120.0 25.0" calcMode="discrete"/><animateTransform attributeName="transform" type="skewY" additive="sum" begin="1.1s" dur="0.30000000000000004s" repeatCount="1" fill="none" from="0" to="0" calcMode="discrete"/><animateTransform attributeName="transform" type="scale" additive="sum" begin="1.1s" dur="0.30000000000000004s" repeatCount="1" fill="none" from="1 1.0" to="1 1.0" calcMode="discrete"/><animateTransform attributeName="transform" type="skewX" additive="sum" begin="1.1s" dur="0.30000000000000004s" repeatCount="1" fill="none" from="0" to="0" calcMode="discrete"/><animateTransform attributeName="transform" type="translate" additive="sum" begin="1.1s" dur="0.30000000000000004s" repeatCount="1" fill="none" from="-6.5 -18.0" to="-6.5 -18.0" calcMode="discrete"/></text><text id="id25b3fc1894ca6412575db9eb" dy="28" style="alignment-baseline: top; font-family: Verdana; font-size: 30.0PX; fill: #faf5e1; stroke: #000000; stroke-width: 0.2" visibility="hidden">Inte<set attributeName="visibility" attributeType="CSS" to="visible" begin="1.4s" fill="none"/><set attributeName="visibility" attributeType="CSS" to="hidden" begin="1.7s" dur="1000000000000s" fill="freeze"/><animateTransform attributeName="transform" type="translate" additive="replace" begin="1.4s" dur="0.30000000000000004s" repeatCount="1" fill="none" from="120.0 25.0" to="120.0 25.0" calcMode="discrete"/><animateTransform attributeName="transform" type="skewY" additive="sum" begin="1.4s" dur="0.30000000000000004s" repeatCount="1" fill="none" from="0" to="0" calcMode="discrete"/><animateTransform attributeName="transform" type="scale" additive="sum" begin="1.4s" dur="0.30000000000000004s" repeatCount="1" fill="none" from="1 1.0" to="1 1.0" calcMode="discrete"/><animateTransform attributeName="transform" type="skewX" additive="sum" begin="1.4s" dur="0.30000000000000004s" repeatCount="1" fill="none" from="0" to="0" calcMode="discrete"/><animateTransform attributeName="transform" type="translate" additive="sum" begin="1.4s" dur="0.30000000000000004s" repeatCount="1" fill="none" from="-6.5 -18.0" to="-6.5 -18.0" calcMode="discrete"/></text><text id="idcfb753aa18899345582074fc" dy="28" style="alignment-baseline: top; font-family: Verdana; font-size: 30.0PX; fill: #faf5e1; stroke: #000000; stroke-width: 0.2" visibility="hidden">Inter<set attributeName="visibility" attributeType="CSS" to="visible" begin="1.7s" fill="none"/><set attributeName="visibility" attributeType="CSS" to="hidden" begin="2s" dur="1000000000000s" fill="freeze"/><animateTransform attributeName="transform" type="translate" additive="replace" begin="1.7s" dur="0.30000000000000004s" repeatCount="1" fill="none" from="120.0 25.0" to="120.0 25.0" calcMode="discrete"/><animateTransform attributeName="transform" type="skewY" additive="sum" begin="1.7s" dur="0.30000000000000004s" repeatCount="1" fill="none" from="0" to="0" calcMode="discrete"/><animateTransform attributeName="transform" type="scale" additive="sum" begin="1.7s" dur="0.30000000000000004s" repeatCount="1" fill="none" from="1 1.0" to="1 1.0" calcMode="discrete"/><animateTransform attributeName="transform" type="skewX" additive="sum" begin="1.7s" dur="0.30000000000000004s" repeatCount="1" fill="none" from="0" to="0" calcMode="discrete"/><animateTransform attributeName="transform" type="translate" additive="sum" begin="1.7s" dur="0.30000000000000004s" repeatCount="1" fill="none" from="-6.5 -18.0" to="-6.5 -18.0" calcMode="discrete"/></text><text id="id319a967162cf0fdd6503947c" dy="28" style="alignment-baseline: top; font-family: Verdana; font-size: 30.0PX; fill: #faf5e1; stroke: #000000; stroke-width: 0.2" visibility="hidden">Intere<set attributeName="visibility" attributeType="CSS" to="visible" begin="2s" fill="none"/><set attributeName="visibility" attributeType="CSS" to="hidden" begin="2.3s" dur="1000000000000s" fill="freeze"/><animateTransform attributeName="transform" type="translate" additive="replace" begin="2s" dur="0.2999999999999998s" repeatCount="1" fill="none" from="120.0 25.0" to="120.0 25.0" calcMode="discrete"/><animateTransform attributeName="transform" type="skewY" additive="sum" begin="2s" dur="0.2999999999999998s" repeatCount="1" fill="none" from="0" to="0" calcMode="discrete"/><animateTransform attributeName="transform" type="scale" additive="sum" begin="2s" dur="0.2999999999999998s" repeatCount="1" fill="none" from="1 1.0" to="1 1.0" calcMode="discrete"/><animateTransform attributeName="transform" type="skewX" additive="sum" begin="2s" dur="0.2999999999999998s" repeatCount="1" fill="none" from="0" to="0" calcMode="discrete"/><animateTransform attributeName="transform" type="translate" additive="sum" begin="2s" dur="0.2999999999999998s" repeatCount="1" fill="none" from="-6.5 -18.0" to="-6.5 -18.0" calcMode="discrete"/></text><text id="id794f1c6eb7eabd7264c1b408" dy="28" style="alignment-baseline: top; font-family: Verdana; font-size: 30.0PX; fill: #faf5e1; stroke: #000000; stroke-width: 0.2" visibility="hidden">Interes<set attributeName="visibility" attributeType="CSS" to="visible" begin="2.3s" fill="none"/><set attributeName="visibility" attributeType="CSS" to="hidden" begin="2.5999999999999996s" dur="1000000000000s" fill="freeze"/><animateTransform attributeName="transform" type="translate" additive="replace" begin="2.3s" dur="0.2999999999999998s" repeatCount="1" fill="none" from="120.0 25.0" to="120.0 25.0" calcMode="discrete"/><animateTransform attributeName="transform" type="skewY" additive="sum" begin="2.3s" dur="0.2999999999999998s" repeatCount="1" fill="none" from="0" to="0" calcMode="discrete"/><animateTransform attributeName="transform" type="scale" additive="sum" begin="2.3s" dur="0.2999999999999998s" repeatCount="1" fill="none" from="1 1.0" to="1 1.0" calcMode="discrete"/><animateTransform attributeName="transform" type="skewX" additive="sum" begin="2.3s" dur="0.2999999999999998s" repeatCount="1" fill="none" from="0" to="0" calcMode="discrete"/><animateTransform attributeName="transform" type="translate" additive="sum" begin="2.3s" dur="0.2999999999999998s" repeatCount="1" fill="none" from="-6.5 -18.0" to="-6.5 -18.0" calcMode="discrete"/></text><text id="ida81d6b8da3b0a9dde0eea8a9" dy="28" style="alignment-baseline: top; font-family: Verdana; font-size: 30.0PX; fill: #faf5e1; stroke: #000000; stroke-width: 0.2" visibility="hidden">Interest<set attributeName="visibility" attributeType="CSS" to="visible" begin="2.6s" fill="none"/><set attributeName="visibility" attributeType="CSS" to="hidden" begin="2.9s" dur="1000000000000s" fill="freeze"/><animateTransform attributeName="transform" type="translate" additive="replace" begin="2.6s" dur="0.2999999999999998s" repeatCount="1" fill="none" from="120.0 25.0" to="120.0 25.0" calcMode="discrete"/><animateTransform attributeName="transform" type="skewY" additive="sum" begin="2.6s" dur="0.2999999999999998s" repeatCount="1" fill="none" from="0" to="0" calcMode="discrete"/><animateTransform attributeName="transform" type="scale" additive="sum" begin="2.6s" dur="0.2999999999999998s" repeatCount="1" fill="none" from="1 1.0" to="1 1.0" calcMode="discrete"/><animateTransform attributeName="transform" type="skewX" additive="sum" begin="2.6s" dur="0.2999999999999998s" repeatCount="1" fill="none" from="0" to="0" calcMode="discrete"/><animateTransform attributeName="transform" type="translate" additive="sum" begin="2.6s" dur="0.2999999999999998s" repeatCount="1" fill="none" from="-6.5 -18.0" to="-6.5 -18.0" calcMode="discrete"/></text><text id="idfa23f09a2e2a27205636554e" dy="28" style="alignment-baseline: top; font-family: Verdana; font-size: 30.0PX; fill: #faf5e1; stroke: #000000; stroke-width: 0.2" visibility="hidden">Interesti<set attributeName="visibility" attributeType="CSS" to="visible" begin="2.9s" fill="none"/><set attributeName="visibility" attributeType="CSS" to="hidden" begin="3.1999999999999997s" dur="1000000000000s" fill="freeze"/><animateTransform attributeName="transform" type="translate" additive="replace" begin="2.9s" dur="0.2999999999999998s" repeatCount="1" fill="none" from="120.0 25.0" to="120.0 25.0" calcMode="discrete"/><animateTransform attributeName="transform" type="skewY" additive="sum" begin="2.9s" dur="0.2999999999999998s" repeatCount="1" fill="none" from="0" to="0" calcMode="discrete"/><animateTransform attributeName="transform" type="scale" additive="sum" begin="2.9s" dur="0.2999999999999998s" repeatCount="1" fill="none" from="1 1.0" to="1 1.0" calcMode="discrete"/><animateTransform attributeName="transform" type="skewX" additive="sum" begin="2.9s" dur="0.2999999999999998s" repeatCount="1" fill="none" from="0" to="0" calcMode="discrete"/><animateTransform attributeName="transform" type="translate" additive="sum" begin="2.9s" dur="0.2999999999999998s" repeatCount="1" fill="none" from="-6.5 -18.0" to="-6.5 -18.0" calcMode="discrete"/></text><text id="id5dddbdc614269cd3f291d50d" dy="28" style="alignment-baseline: top; font-family: Verdana; font-size: 30.0PX; fill: #faf5e1; stroke: #000000; stroke-width: 0.2" visibility="hidden">Interestin<set attributeName="visibility" attributeType="CSS" to="visible" begin="3.2s" fill="none"/><set attributeName="visibility" attributeType="CSS" to="hidden" begin="3.5s" dur="1000000000000s" fill="freeze"/><animateTransform attributeName="transform" type="translate" additive="replace" begin="3.2s" dur="0.2999999999999998s" repeatCount="1" fill="none" from="120.0 25.0" to="120.0 25.0" calcMode="discrete"/><animateTransform attributeName="transform" type="skewY" additive="sum" begin="3.2s" dur="0.2999999999999998s" repeatCount="1" fill="none" from="0" to="0" calcMode="discrete"/><animateTransform attributeName="transform" type="scale" additive="sum" begin="3.2s" dur="0.2999999999999998s" repeatCount="1" fill="none" from="1 1.0" to="1 1.0" calcMode="discrete"/><animateTransform attributeName="transform" type="skewX" additive="sum" begin="3.2s" dur="0.2999999999999998s" repeatCount="1" fill="none" from="0" to="0" calcMode="discrete"/><animateTransform attributeName="transform" type="translate" additive="sum" begin="3.2s" dur="0.2999999999999998s" repeatCount="1" fill="none" from="-6.5 -18.0" to="-6.5 -18.0" calcMode="discrete"/></text><text id="id168f470bd971c64815ac1406" dy="28" style="alignment-baseline: top; font-family: Verdana; font-size: 30.0PX; fill: #faf5e1; stroke: #000000; stroke-width: 0.2" visibility="hidden">Interesting<set attributeName="visibility" attributeType="CSS" to="visible" begin="3.5s" fill="none"/><set attributeName="visibility" attributeType="CSS" to="hidden" begin="3.8s" dur="1000000000000s" fill="freeze"/><animateTransform attributeName="transform" type="translate" additive="replace" begin="3.5s" dur="0.2999999999999998s" repeatCount="1" fill="none" from="120.0 25.0" to="120.0 25.0" calcMode="discrete"/><animateTransform attributeName="transform" type="skewY" additive="sum" begin="3.5s" dur="0.2999999999999998s" repeatCount="1" fill="none" from="0" to="0" calcMode="discrete"/><animateTransform attributeName="transform" type="scale" additive="sum" begin="3.5s" dur="0.2999999999999998s" repeatCount="1" fill="none" from="1 1.0" to="1 1.0" calcMode="discrete"/><animateTransform attributeName="transform" type="skewX" additive="sum" begin="3.5s" dur="0.2999999999999998s" repeatCount="1" fill="none" from="0" to="0" calcMode="discrete"/><animateTransform attributeName="transform" type="translate" additive="sum" begin="3.5s" dur="0.2999999999999998s" repeatCount="1" fill="none" from="-6.5 -18.0" to="-6.5 -18.0" calcMode="discrete"/></text><text id="id95d15f2060dfa533b62c28eb" dy="28" style="alignment-baseline: top; font-family: Verdana; font-size: 30.0PX; fill: #faf5e1; stroke: #000000; stroke-width: 0.2" visibility="hidden">Interesting.<set attributeName="visibility" attributeType="CSS" to="visible" begin="3.8s" fill="none"/><set attributeName="visibility" attributeType="CSS" to="hidden" begin="4.1s" dur="1000000000000s" fill="freeze"/><animateTransform attributeName="transform" type="translate" additive="replace" begin="3.8s" dur="0.2999999999999998s" repeatCount="1" fill="none" from="120.0 25.0" to="120.0 25.0" calcMode="discrete"/><animateTransform attributeName="transform" type="skewY" additive="sum" begin="3.8s" dur="0.2999999999999998s" repeatCount="1" fill="none" from="0" to="0" calcMode="discrete"/><animateTransform attributeName="transform" type="scale" additive="sum" begin="3.8s" dur="0.2999999999999998s" repeatCount="1" fill="none" from="1 1.0" to="1 1.0" calcMode="discrete"/><animateTransform attributeName="transform" type="skewX" additive="sum" begin="3.8s" dur="0.2999999999999998s" repeatCount="1" fill="none" from="0" to="0" calcMode="discrete"/><animateTransform attributeName="transform" type="translate" additive="sum" begin="3.8s" dur="0.2999999999999998s" repeatCount="1" fill="none" from="-6.5 -18.0" to="-6.5 -18.0" calcMode="discrete"/></text><text id="idf3ce4fea1f9749a6e71c868f" dy="28" style="alignment-baseline: top; font-family: Verdana; font-size: 30.0PX; fill: #faf5e1; stroke: #000000; stroke-width: 0.2" visibility="hidden">Interesting..<set attributeName="visibility" attributeType="CSS" to="visible" begin="4.1s" fill="none"/><set attributeName="visibility" attributeType="CSS" to="hidden" begin="4.3999999999999995s" dur="1000000000000s" fill="freeze"/><animateTransform attributeName="transform" type="translate" additive="replace" begin="4.1s" dur="0.2999999999999998s" repeatCount="1" fill="none" from="120.0 25.0" to="120.0 25.0" calcMode="discrete"/><animateTransform attributeName="transform" type="skewY" additive="sum" begin="4.1s" dur="0.2999999999999998s" repeatCount="1" fill="none" from="0" to="0" calcMode="discrete"/><animateTransform attributeName="transform" type="scale" additive="sum" begin="4.1s" dur="0.2999999999999998s" repeatCount="1" fill="none" from="1 1.0" to="1 1.0" calcMode="discrete"/><animateTransform attributeName="transform" type="skewX" additive="sum" begin="4.1s" dur="0.2999999999999998s" repeatCount="1" fill="none" from="0" to="0" calcMode="discrete"/><animateTransform attributeName="transform" type="translate" additive="sum" begin="4.1s" dur="0.2999999999999998s" repeatCount="1" fill="none" from="-6.5 -18.0" to="-6.5 -18.0" calcMode="discrete"/></text><text id="id15c37477b4261bdd99cea3d0" dy="28" style="alignment-baseline: top; font-family: Verdana; font-size: 30.0PX; fill: #faf5e1; stroke: #000000; stroke-width: 0.2" visibility="hidden">Interesting...<set attributeName="visibility" attributeType="CSS" to="visible" begin="4.4s" fill="none"/><set attributeName="visibility" attributeType="CSS" to="hidden" begin="5s" dur="1000000000000s" fill="freeze"/><animateTransform attributeName="transform" type="translate" additive="replace" begin="4.4s" dur="0.5999999999999996s" repeatCount="1" fill="none" from="120.0 25.0" to="120.0 25.0" calcMode="discrete"/><animateTransform attributeName="transform" type="skewY" additive="sum" begin="4.4s" dur="0.5999999999999996s" repeatCount="1" fill="none" from="0" to="0" calcMode="discrete"/><animateTransform attributeName="transform" type="scale" additive="sum" begin="4.4s" dur="0.5999999999999996s" repeatCount="1" fill="none" from="1 1.0" to="1 1.0" calcMode="discrete"/><animateTransform attributeName="transform" type="skewX" additive="sum" begin="4.4s" dur="0.5999999999999996s" repeatCount="1" fill="none" from="0" to="0" calcMode="discrete"/><animateTransform attributeName="transform" type="translate" additive="sum" begin="4.4s" dur="0.5999999999999996s" repeatCount="1" fill="none" from="-6.5 -18.0" to="-6.5 -18.0" calcMode="discrete"/></text><g id="idb107529dbc803fdb6327eca1" visibility="hidden"><set attributeName="visibility" attributeType="CSS" to="visible" begin="0s" fill="none"/><set attributeName="visibility" attributeType="CSS" to="hidden" begin="5s" dur="1000000000000s" fill="freeze"/><animateTransform attributeName="transform" type="translate" additive="replace" begin="0s" dur="5s" repeatCount="1" fill="none" from="5.0 210.203" to="5.0 210.203" calcMode="discrete"/><animateTransform attributeName="transform" type="scale" additive="sum" begin="0s" dur="5s" repeatCount="1" fill="none" from="1.0 1.0" to="1.0 1.0" calcMode="discrete"/><animateTransform attributeName="transform" type="translate" additive="sum" begin="0s" dur="5s" repeatCount="1" fill="none" from="-0.0 -0.0" to="-0.0 -0.0" calcMode="discrete"/><g id="idb1c04cfd63df4ef302233c79" visibility="hidden"><set attributeName="visibility" attributeType="CSS" to="visible" begin="0s" fill="none"/><set attributeName="visibility" attributeType="CSS" to="hidden" begin="5s" dur="1000000000000s" fill="freeze"/><animateTransform attributeName="transform" type="translate" additive="replace" begin="0s" dur="5s" repeatCount="1" fill="none" from="0.0 0.0" to="0.0 0.0" calcMode="discrete"/><animateTransform attributeName="transform" type="translate" additive="sum" begin="0s" dur="5s" repeatCount="1" fill="none" from="70.498 12.399" to="70.498 12.399" calcMode="discrete"/><g id="ide66c22db9a4f35ba813987a8" visibility="hidden"><set attributeName="visibility" attributeType="CSS" to="visible" begin="0s" fill="none"/><set attributeName="visibility" attributeType="CSS" to="hidden" begin="5s" dur="1000000000000s" fill="freeze"/><animateTransform attributeName="transform" type="translate" additive="replace" begin="0s" dur="5s" repeatCount="1" fill="none" from="-58.1 0.0" to="-58.1 0.0" calcMode="discrete"/><animateTransform attributeName="transform" type="translate" additive="sum" begin="0s" dur="5s" repeatCount="1" fill="none" from="-0.0 -0.0" to="-0.0 -0.0" calcMode="discrete"/><path id="id71201a3918313f447ee1b9a7" d="M 23.5,12.5 C 23.5,18.684 18.531,23.697 12.402,23.697 C 6.272,23.697 1.303,18.685 1.303,12.501 C 1.303,6.316 6.272,1.302 12.402,1.302 C 18.531,1.302 23.5,6.316 23.5,12.501 L 23.5,12.501 M 23.5,12.501 " style="fill: #38393a; fill-opacity: 1.0; stroke: none" visibility="hidden"><set attributeName="visibility" attributeType="CSS" to="visible" begin="0s" fill="none"/><set attributeName="visibility" attributeType="CSS" to="hidden" begin="5s" dur="1000000000000s" fill="freeze"/><animateTransform attributeName="transform" type="translate" additive="replace" begin="0s" dur="5s" repeatCount="1" fill="none" from="0.002 0.101" to="0.002 0.101" calcMode="discrete"/><animateTransform attributeName="transform" type="translate" additive="sum" begin="0s" dur="5s" repeatCount="1" fill="none" from="-12.401 -12.5" to="-12.401 -12.5" calcMode="discrete"/></path><g id="id2ee17d0c640fbb8738aac8e1" visibility="hidden"><set attributeName="visibility" attributeType="CSS" to="visible" begin="0s" fill="none"/><set attributeName="visibility" attributeType="CSS" to="hidden" begin="5s" dur="1000000000000s" fill="freeze"/><animateTransform attributeName="transform" type="translate" additive="replace" begin="0s" dur="5s" repeatCount="1" fill="none" from="0.0 0.0" to="0.0 0.0" calcMode="discrete"/><animateTransform attributeName="transform" type="translate" additive="sum" begin="0s" dur="5s" repeatCount="1" fill="none" from="-0.0 -0.0" to="-0.0 -0.0" calcMode="discrete"/><path id="id072a311989d947507783224c" d="M 12.399,0.5 C 5.8,0.5 0.5,5.8 0.5,12.399 C 0.5,18.999 5.8,24.297 12.399,24.297 C 18.999,24.297 24.296,18.999 24.296,12.399 C 24.296,5.799 18.897,0.5 12.397,0.5 L 12.397,0.5 M 18.296,16 C 17.696,17 16.997,18.1 16.798,18.397 L 16.798,18.497 L 16.698,18.497 C 16.299,18.696 14.899,19.095 14.201,19.095 C 14.201,19.095 14.102,19.095 14.102,19.095 L 14.003,19.095 C 13.203,18.798 11.403,18.198 10.804,17.999 C 9.804,18.398 8.804,18.898 7.804,19.398 C 7.304,19.597 6.904,19.894 6.404,20.093 C 6.404,20.093 6.404,20.093 6.404,20.093 C 6.404,20.093 5.404,20.693 5.204,20.693 L 4.905,20.693 L 4.905,20.396 C 4.905,19.796 5.004,18.397 5.103,18.1 C 6.401,4.1 11.6,2.902 11.798,2.802 C 11.996,2.802 12.296,2.703 12.494,2.703 L 12.593,2.703 C 12.692,2.703 12.692,2.703 12.791,2.703 C 17.09,2.703 21.289,13.703 21.488,14.203 C 21.588,14.401 21.787,15.099 21.887,15.198 L 21.987,15.498 L 18.289,15.997 L 18.289,15.997 M 12.39,0.497 " style="fill: #ffbc00; fill-opacity: 1.0; stroke: none" visibility="hidden"><set attributeName="visibility" attributeType="CSS" to="visible" begin="0s" fill="none"/><set attributeName="visibility" attributeType="CSS" to="hidden" begin="5s" dur="1000000000000s" fill="freeze"/><animateTransform attributeName="transform" type="translate" additive="replace" begin="0s" dur="5s" repeatCount="1" fill="none" from="0.0 0.0" to="0.0 0.0" calcMode="discrete"/><animateTransform attributeName="transform" type="translate" additive="sum" begin="0s" dur="5s" repeatCount="1" fill="none" from="-12.399 -12.3985" to="-12.399 -12.3985" calcMode="discrete"/></path><path id="id5ebf67d6fc83850692c50203" d="M 13.899,7.8 C 13.201,7.8 12.602,7.501 12.602,7.501 L 11.503,7.001 L 12.701,7.001 C 13.099,7.001 13.297,6.803 13.495,6.504 C 13.693,6.205 13.594,5.906 13.495,5.706 C 13.195,5.206 12.895,5.008 12.498,5.008 C 11.498,5.008 10.399,6.107 9.899,6.706 C 9.3,7.606 8.8,8.705 8.403,10.005 C 9.601,9.406 11.899,8.507 15.798,7.809 L 15.996,7.809 L 16.694,9.809 L 16.397,9.908 C 10.797,10.908 8.198,12.606 7.599,13.003 C 7.3,14.303 7.102,15.803 6.904,17.3 L 10.303,16.101 L 12.303,16.8 C 13.103,17.097 13.603,17.197 14.002,17.396 C 14.601,17.396 15.799,17.099 16.198,16.9 C 16.397,16.603 17.397,15.103 17.796,14.303 L 17.896,14.204 L 17.996,14.204 C 18.695,14.105 19.294,14.006 19.693,14.006 C 18.994,11.907 17.395,8.407 15.995,6.507 C 15.495,7.606 14.495,7.806 13.896,7.806 L 13.896,7.806 M 16.395,13.305 C 15.895,14.404 14.296,15.003 13.098,15.003 C 12.499,15.003 11.999,14.805 11.602,14.607 L 11.404,14.508 L 12.204,13.008 L 12.504,13.206 C 12.603,13.305 12.901,13.404 13.201,13.404 C 14.001,13.404 14.801,13.005 14.9,12.705 L 14.999,12.405 L 16.596,13.103 L 16.397,13.301 L 16.397,13.301 M 13.897,7.801 " style="fill: #ffbc00; fill-opacity: 1.0; stroke: none" visibility="hidden"><set attributeName="visibility" attributeType="CSS" to="visible" begin="0s" fill="none"/><set attributeName="visibility" attributeType="CSS" to="hidden" begin="5s" dur="1000000000000s" fill="freeze"/><animateTransform attributeName="transform" type="translate" additive="replace" begin="0s" dur="5s" repeatCount="1" fill="none" from="0.898 -1.198" to="0.898 -1.198" calcMode="discrete"/><animateTransform attributeName="transform" type="translate" additive="sum" begin="0s" dur="5s" repeatCount="1" fill="none" from="-13.297 -11.2005" to="-13.297 -11.2005" calcMode="discrete"/></path></g></g><g id="id08de0b7eabecb7300f3b1c03" visibility="hidden"><set attributeName="visibility" attributeType="CSS" to="visible" begin="0s" fill="none"/><set attributeName="visibility" attributeType="CSS" to="hidden" begin="5s" dur="1000000000000s" fill="freeze"/><animateTransform attributeName="transform" type="translate" additive="replace" begin="0s" dur="5s" repeatCount="1" fill="none" from="14.495 -0.044" to="14.495 -0.044" calcMode="discrete"/><animateTransform attributeName="transform" type="translate" additive="sum" begin="0s" dur="5s" repeatCount="1" fill="none" from="-0.0 -0.0" to="-0.0 -0.0" calcMode="discrete"/><path id="idcf316e9b78a8975173a10875" d="M 123.5,7.5 L 116.5,7.5 C 115,7.5 113.803,8.599 113.803,9.996 L 113.803,14.596 C 113.803,15.993 115,17.091 116.5,17.091 L 123.5,17.091 C 125,17.091 126.197,15.992 126.197,14.595 L 126.197,9.995 C 126.197,8.695 125,7.497 123.5,7.497 L 123.5,7.497 M 123.303,13.997 C 123.303,14.497 122.903,14.797 122.403,14.797 L 117.503,14.797 C 117.003,14.797 116.603,14.4 116.603,14 L 116.603,10.603 C 116.603,10.103 117.003,9.706 117.503,9.706 L 122.403,9.706 C 122.903,9.706 123.303,10.105 123.303,10.605 L 123.303,14.004 L 123.303,14.004 M 138,7.604 L 138,14.004 L 133.101,8.504 C 132.503,7.705 131.503,7.606 131.204,7.507 L 131.204,7.507 L 128.204,7.507 L 128.204,17.007 L 131.204,17.007 L 131.204,10.608 C 132.103,11.608 135.302,15.307 136.201,16.106 C 137.4,17.106 138.099,17.106 138.099,17.106 L 138.099,17.106 L 140.998,17.106 L 140.998,7.606 L 137.998,7.606 L 137.998,7.606 M 52.399,14.106 L 47.5,8.606 C 46.903,7.807 45.903,7.708 45.605,7.609 L 45.605,7.609 L 42.605,7.609 L 42.605,17.109 L 45.605,17.109 L 45.605,10.71 C 46.504,11.71 49.702,15.409 50.601,16.208 C 51.801,17.208 52.501,17.208 52.501,17.208 L 52.501,17.208 L 55.4,17.208 L 55.4,7.608 L 52.4,7.608 L 52.4,14.108 L 52.4,14.108 M 57.299,17.107 L 60.299,17.107 L 60.299,7.607 L 57.299,7.607 L 57.299,17.107 L 57.299,17.107 M 89.097,9.908 L 92.997,9.908 L 92.997,17.107 L 95.997,17.107 L 95.997,9.908 L 99.796,9.908 L 99.796,7.61 L 89.096,7.61 L 89.096,9.908 L 89.096,9.908 M 112.195,10.507 C 112.392,10.207 112.592,10.108 112.691,9.708 C 112.99,8.408 111.09,7.71 110.291,7.71 L 108.492,7.71 L 103.893,7.71 L 103.893,7.71 L 100.893,7.71 L 100.893,7.71 L 100.893,10.01 L 100.893,17.208 L 103.893,17.208 L 103.893,9.908 L 108.992,9.908 L 106.193,13.007 L 109.89,17.107 L 113.587,17.107 L 109.89,13.007 L 112.189,10.507 L 112.189,10.507 M 82.689,7.607 L 82.689,7.607 L 82.689,7.607 L 77.689,17.107 L 80.886,17.207 L 84.286,10.707 L 87.686,17.207 L 90.883,17.107 L 85.883,7.607 L 82.686,7.607 L 82.686,7.607 M 33.987,7.607 L 33.987,7.607 L 33.987,7.607 L 28.987,17.107 L 32.187,17.207 L 35.586,10.707 L 38.985,17.207 L 42.185,17.107 L 37.185,7.607 L 33.985,7.607 L 33.985,7.607 M 74.384,7.607 L 74.384,7.607 C 74.085,7.607 73.388,7.706 72.888,8.404 L 69.789,13.103 L 66.69,8.404 C 66.29,7.706 65.593,7.607 65.294,7.607 L 65.294,7.607 L 62.294,7.607 L 62.294,17.106 L 65.294,17.106 L 65.294,10.907 L 69.194,17.106 L 69.694,17.106 L 69.793,17.106 L 70.293,17.106 L 74.293,10.806 L 74.293,17.106 L 77.293,17.106 L 77.293,7.607 L 74.494,7.607 C 74.593,7.607 74.593,7.607 74.396,7.607 L 74.396,7.607 M 123.494,7.508 " style="fill: #ffffff; fill-opacity: 1.0; stroke: none" visibility="hidden"><set attributeName="visibility" attributeType="CSS" to="visible" begin="0s" fill="none"/><set attributeName="visibility" attributeType="CSS" to="hidden" begin="5s" dur="1000000000000s" fill="freeze"/><animateTransform attributeName="transform" type="translate" additive="replace" begin="0s" dur="5s" repeatCount="1" fill="none" from="0.0 0.0" to="0.0 0.0" calcMode="discrete"/><animateTransform attributeName="transform" type="translate" additive="sum" begin="0s" dur="5s" repeatCount="1" fill="none" from="-84.9945 -12.3535" to="-84.9945 -12.3535" calcMode="discrete"/></path><path id="id8c547161a56800ddbee520e6" d="M 123.5,7.5 L 116.5,7.5 C 115,7.5 113.803,8.599 113.803,9.996 L 113.803,14.596 C 113.803,15.993 115,17.091 116.5,17.091 L 123.5,17.091 C 125,17.091 126.197,15.992 126.197,14.595 L 126.197,9.995 C 126.197,8.695 125,7.497 123.5,7.497 L 123.5,7.497 M 123.303,13.997 C 123.303,14.497 122.903,14.797 122.403,14.797 L 117.503,14.797 C 117.003,14.797 116.603,14.4 116.603,14 L 116.603,10.603 C 116.603,10.103 117.003,9.706 117.503,9.706 L 122.403,9.706 C 122.903,9.706 123.303,10.105 123.303,10.605 L 123.303,14.004 L 123.303,14.004 M 138,7.604 L 138,14.004 L 133.101,8.504 C 132.503,7.705 131.503,7.606 131.204,7.507 L 131.204,7.507 L 128.204,7.507 L 128.204,17.007 L 131.204,17.007 L 131.204,10.608 C 132.103,11.608 135.302,15.307 136.201,16.106 C 137.4,17.106 138.099,17.106 138.099,17.106 L 138.099,17.106 L 140.998,17.106 L 140.998,7.606 L 137.998,7.606 L 137.998,7.606 M 52.399,14.106 L 47.5,8.606 C 46.903,7.807 45.903,7.708 45.605,7.609 L 45.605,7.609 L 42.605,7.609 L 42.605,17.109 L 45.605,17.109 L 45.605,10.71 C 46.504,11.71 49.702,15.409 50.601,16.208 C 51.801,17.208 52.501,17.208 52.501,17.208 L 52.501,17.208 L 55.4,17.208 L 55.4,7.608 L 52.4,7.608 L 52.4,14.108 L 52.4,14.108 M 57.299,17.107 L 60.299,17.107 L 60.299,7.607 L 57.299,7.607 L 57.299,17.107 L 57.299,17.107 M 89.097,9.908 L 92.997,9.908 L 92.997,17.107 L 95.997,17.107 L 95.997,9.908 L 99.796,9.908 L 99.796,7.61 L 89.096,7.61 L 89.096,9.908 L 89.096,9.908 M 112.195,10.507 C 112.392,10.207 112.592,10.108 112.691,9.708 C 112.99,8.408 111.09,7.71 110.291,7.71 L 108.492,7.71 L 103.893,7.71 L 103.893,7.71 L 100.893,7.71 L 100.893,7.71 L 100.893,10.01 L 100.893,17.208 L 103.893,17.208 L 103.893,9.908 L 108.992,9.908 L 106.193,13.007 L 109.89,17.107 L 113.587,17.107 L 109.89,13.007 L 112.189,10.507 L 112.189,10.507 M 82.689,7.607 L 82.689,7.607 L 82.689,7.607 L 77.689,17.107 L 80.886,17.207 L 84.286,10.707 L 87.686,17.207 L 90.883,17.107 L 85.883,7.607 L 82.686,7.607 L 82.686,7.607 M 33.987,7.607 L 33.987,7.607 L 33.987,7.607 L 28.987,17.107 L 32.187,17.207 L 35.586,10.707 L 38.985,17.207 L 42.185,17.107 L 37.185,7.607 L 33.985,7.607 L 33.985,7.607 M 74.384,7.607 L 74.384,7.607 C 74.085,7.607 73.388,7.706 72.888,8.404 L 69.789,13.103 L 66.69,8.404 C 66.29,7.706 65.593,7.607 65.294,7.607 L 65.294,7.607 L 62.294,7.607 L 62.294,17.106 L 65.294,17.106 L 65.294,10.907 L 69.194,17.106 L 69.694,17.106 L 69.793,17.106 L 70.293,17.106 L 74.293,10.806 L 74.293,17.106 L 77.293,17.106 L 77.293,7.607 L 74.494,7.607 C 74.593,7.607 74.593,7.607 74.396,7.607 L 74.396,7.607 M 123.494,7.508 " style="fill: none; stroke: #000000; stroke-width: 0.5; stroke-opacity: 1.0" visibility="hidden"><set attributeName="visibility" attributeType="CSS" to="visible" begin="0s" fill="none"/><set attributeName="visibility" attributeType="CSS" to="hidden" begin="5s" dur="1000000000000s" fill="freeze"/><animateTransform attributeName="transform" type="translate" additive="replace" begin="0s" dur="5s" repeatCount="1" fill="none" from="0.0 0.0" to="0.0 0.0" calcMode="discrete"/><animateTransform attributeName="transform" type="translate" additive="sum" begin="0s" dur="5s" repeatCount="1" fill="none" from="-84.9945 -12.3535" to="-84.9945 -12.3535" calcMode="discrete"/></path></g><path id="id034f0211d760d65862ca8a51" d="M 12.399,0.5 C 18.999,0.5 24.296,5.8 24.296,12.399 C 24.296,18.999 18.998,24.297 12.398,24.297 C 5.798,24.297 0.499,18.898 0.499,12.398 C 0.499,5.898 5.799,0.499 12.398,0.499 M 12.398,-0.001 C 5.599,-0.001 -0,5.598 -0,12.397 C -0,19.196 5.599,24.796 12.398,24.796 C 19.197,24.796 24.796,19.196 24.796,12.398 C 24.796,5.599 19.197,-0.001 12.397,-0.001 L 12.397,-0.001 L 12.397,-0.001 M 12.397,0.499 " style="fill: #000000; fill-opacity: 1.0; stroke: none" visibility="hidden"><set attributeName="visibility" attributeType="CSS" to="visible" begin="0s" fill="none"/><set attributeName="visibility" attributeType="CSS" to="hidden" begin="5s" dur="1000000000000s" fill="freeze"/><animateTransform attributeName="transform" type="translate" additive="replace" begin="0s" dur="5s" repeatCount="1" fill="none" from="-58.099 0.0" to="-58.099 0.0" calcMode="discrete"/><animateTransform attributeName="transform" type="translate" additive="sum" begin="0s" dur="5s" repeatCount="1" fill="none" from="-12.3995 -12.398" to="-12.3995 -12.398" calcMode="discrete"/></path></g></g></g><script><![CDATA[
      var document = null;
      var root = null;
      var scheduler = null;
      var schedulerEnabled = ((navigator.userAgent.indexOf('Safari') != -1) && (navigator.userAgent.indexOf('Chrome') == -1)) ||
                             (navigator.userAgent.match(/(iPod|iPhone|iPad)/) && navigator.userAgent.match(/AppleWebKit/) && !navigator.userAgent.match('CriOS'));
      var currentEvent = 0;
      var previousTime = 0;
      var nextTime = 0;

      function initialize(event)
      {
         document = event.target.ownerDocument;
         root = document.documentElement;
         if (schedulerEnabled && events.length > 0) {
             var event = events[currentEvent];
             while (currentEvent < events.length && events[currentEvent]["time"] == 0) { 
                 processEvent();
                 currentEvent += 1;
             }
             if (currentEvent < events.length) {
                 var time = events[currentEvent]["time"];
                 nextTime = time;
                 scheduler = setTimeout(processSchedule, time - previousTime);
             }
         }
      };

      function freeze()
      {
         root.pauseAnimations();
      };

      function processSchedule()
      {
         if (currentEvent < events.length) {
             var event = events[currentEvent];
             previousTime = nextTime;
             while (currentEvent < events.length && events[currentEvent]["time"] == nextTime) { 
                 processEvent();
                 currentEvent += 1;
             }
             if (currentEvent < events.length) {
                 var time = events[currentEvent]["time"];
                 nextTime = time;
                 scheduler = setTimeout(processSchedule, time - previousTime);
             }
         }
      };

      function processEvent()
      {
         var event = events[currentEvent];
         if ("audio_start" in event) { 
             event = event["audio_start"];
             var id = event["id"];
             var audio = document.getElementById(id);
             if (audio != undefined)
                 audio.play();
         }
         else if ("audio_stop" in event) { 
             event = event["audio_stop"];
             var id = event["id"];
             var audio = document.getElementById(id);
             if (audio != undefined) {
                 audio.pause();
                 audio.currentTime = 0;
             }
         }
         else if ("pause" in event) { 
             event = event["pause"];
             freeze();
         }
      };

    var events = [{"time": 4650,"pause": {}}]
]]></script><rect id="finalizer" x="0" y="0" width="1" height="1" style="fill: none; stroke: none"><set attributeName="x" to="0" begin="4.65s" dur="1000000s" fill="freeze" onbegin="freeze();"/></rect></svg>